<svg xmlns="http://www.w3.org/2000/svg" width="75.06" height="137.262" viewBox="0 0 75.06 137.262">
  <g id="girassol" transform="translate(1.637 0.749)">
    <path id="Caminho_1" data-name="Caminho 1" d="M65.618,177.706a7.922,7.922,0,0,0-3.474,5.884,9.707,9.707,0,0,0,2.088,5.665,12.085,12.085,0,0,0,3.584,3.57,7.218,7.218,0,0,0,5.163.984,6.648,6.648,0,0,0,4.112-3.072,13.945,13.945,0,0,0,1.6-4.663,13.255,13.255,0,0,0,.066-6.672C76.816,173.362,70.008,174.481,65.618,177.706Z" transform="translate(-43.91 -120.56)" fill="#fff"/>
    <path id="Caminho_2" data-name="Caminho 2" d="M20.043,267.7a10.559,10.559,0,0,0,1.984,4.995A6.139,6.139,0,0,0,26.87,275.1c2.131-.07,3.953-1.445,5.489-2.856a42.741,42.741,0,0,0,7.357-8.846,15.062,15.062,0,0,0,2.293-5.352,9.568,9.568,0,0,0-6.069-10.167C24.346,243.49,18.766,259.682,20.043,267.7Z" transform="translate(-13.525 -170.824)" fill="#fff"/>
    <path id="Caminho_3" data-name="Caminho 3" d="M66.65,28.72c3.058,2.677,6.733,4.893,9.836,7.538C81.873,40.849,85.472,46.892,85.3,53.1c-.109,4.03-1.763,7.957-1.968,11.984s1.538,8.561,6.171,10.391C93.367,77,98.262,76.15,101.7,74.1a20.438,20.438,0,0,0,7.326-8.183A36.916,36.916,0,0,0,106.614,26.2,38.8,38.8,0,0,0,94.376,15.115c-6.58-3.756-15.422-6.109-23.5-4.3-5.728,1.282-9.991,3.624-9.733,8.851C61.313,23.085,63.8,26.225,66.65,28.72Z" transform="translate(-49.472 -6.931)" fill="#fff"/>
    <path id="Caminho_4" data-name="Caminho 4" d="M69.381,135.318c-1.076,3.99-5.439,6.111-7.614,9.625a12.975,12.975,0,0,0-1.491,3.7,19.23,19.23,0,0,0-.176,8.521c.1.473.271,1.011.723,1.182a1.428,1.428,0,0,0,.736.015,15.629,15.629,0,0,0,10.553-7.629,23.359,23.359,0,0,0,2.877-12.942" transform="translate(-42.135 -93.44)" fill="none" stroke="#1e1200" stroke-miterlimit="10" stroke-width="1"/>
    <path id="Caminho_5" data-name="Caminho 5" d="M141.542,50.59c.188-3.636,1.611-7.616,4.389-9.969,3.76-3.186,9.205-3.461,14.068-2.664-2.521,2.1-3.169,5.638-4.723,8.525a14.5,14.5,0,0,1-11.15,7.426" transform="translate(-99.406 -24.598)" fill="none" stroke="#1e1200" stroke-miterlimit="10" stroke-width="1"/>
    <path id="Caminho_6" data-name="Caminho 6" d="M102.8,23.392a15.564,15.564,0,0,1-2.733-14.436A30.636,30.636,0,0,1,104.57,1a16.911,16.911,0,0,1,5.436,10.676,17.321,17.321,0,0,1-3.263,11.682" transform="translate(-69.387 -1)" fill="none" stroke="#1e1200" stroke-miterlimit="10" stroke-width="1"/>
    <path id="Caminho_7" data-name="Caminho 7" d="M65.8,33.367c-4.331-.151-8.094-3.444-9.878-7.393s-1.907-8.444-1.574-12.765c.038-.5.247-1.295.336-1.785A6.38,6.38,0,0,1,57.831,13.1c5.624,4.679,10.16,11.2,10.655,18.5" transform="translate(-38.267 -7.725)" fill="none" stroke="#1e1200" stroke-miterlimit="10" stroke-width="1"/>
    <path id="Caminho_8" data-name="Caminho 8" d="M43.373,114.079a14.749,14.749,0,0,0-12.866,5.212,19.625,19.625,0,0,0-4.142,13.288l7.521-1.859a18.129,18.129,0,0,0,4.752-1.656,9.126,9.126,0,0,0,3.86-4.4c.85-2.065.973-4.507,2.456-6.177" transform="translate(-17.707 -78.576)" fill="none" stroke="#1e1200" stroke-miterlimit="10" stroke-width="1"/>
    <path id="Caminho_9" data-name="Caminho 9" d="M31.745,73.169a18.419,18.419,0,0,0-13.1-4.463C14,68.94,9.521,70.449,5.174,72.1A6.9,6.9,0,0,0,8.71,75.6a25.957,25.957,0,0,0,21.264,1.464" transform="translate(-4.048 -47.306)" fill="none" stroke="#1e1200" stroke-miterlimit="10" stroke-width="1"/>
    <path id="Caminho_10" data-name="Caminho 10" d="M111.351,142.611l4.032,5.711a19.53,19.53,0,0,1,2.705,4.706,11.332,11.332,0,0,1-.043,7.167,16.242,16.242,0,0,1-3.818,6.143,1.394,1.394,0,0,1-.811.51c-.325.031-.407.006-.732-.356-2.037-1.806-4.165-3.75-4.949-6.357a14.833,14.833,0,0,1-.084-6.118L109.038,143" transform="translate(-74.979 -98.516)" fill="none" stroke="#1e1200" stroke-miterlimit="10" stroke-width="1"/>
    <path id="Caminho_11" data-name="Caminho 11" d="M153.5,107.3a23.309,23.309,0,0,1,12.674.023c4.009,1.216,6.567,3.52,9.017,6.918.627.87,1.648,2.313,1.575,3.383-4.019.763-8.264,1.511-12.121.148-4.325-1.528-7.484-5.495-11.863-6.857" transform="translate(-108.596 -73.197)" fill="none" stroke="#1e1200" stroke-miterlimit="10" stroke-width="1"/>
    <path id="Caminho_12" data-name="Caminho 12" d="M143.565,126.71c3.572,1.764,5.278,6.18,8.048,9.042a37.9,37.9,0,0,0,4.9,3.705,8.785,8.785,0,0,1,3.647,4.788c.333,1.463-.19,3.219-.569,4.67l-4.739-.954a24.588,24.588,0,0,1-5.225-1.46,14.518,14.518,0,0,1-6.947-7.025,21.926,21.926,0,0,1-1.967-9.8" transform="translate(-98.953 -87.478)" fill="none" stroke="#1e1200" stroke-miterlimit="10" stroke-width="1"/>
    <path id="Caminho_13" data-name="Caminho 13" d="M150.5,67.925c4.088.517,8.974.821,12.425-1.43,3.817-2.489,5.256-7.583,9.016-10.157a.61.61,0,0,0,.264-.275c.083-.246-.168-.468-.392-.6a14.359,14.359,0,0,0-12.779-.438c-4.063,1.75-7.83,5.579-10.207,9.309" transform="translate(-106.046 -35.027)" fill="none" stroke="#1e1200" stroke-miterlimit="10" stroke-width="1"/>
    <path id="Caminho_14" data-name="Caminho 14" d="M45.409,55.632c-4.491.146-9.77-.956-13.268-3.777s-5.609-7.545-4.624-11.929a31.351,31.351,0,0,1,11.508,3.882,24.151,24.151,0,0,1,8.439,8.959" transform="translate(-18.306 -26.113)" fill="none" stroke="#1e1200" stroke-miterlimit="10" stroke-width="1"/>
    <path id="Caminho_15" data-name="Caminho 15" d="M123.8,28.253c2.022-4.212,6.383-7.829,6.967-12.465.372-2.956-.881-5.932-.542-8.892a13.139,13.139,0,0,0-7.131,5.786,21.751,21.751,0,0,0-2.855,8.863,11.921,11.921,0,0,0,.942,5.851" transform="translate(-83.801 -4.804)" fill="none" stroke="#1e1200" stroke-miterlimit="10" stroke-width="1"/>
    <path id="Caminho_16" data-name="Caminho 16" d="M91.994,142.041A44.31,44.31,0,0,0,88.061,152a21.8,21.8,0,0,0-.885,7.205,10.672,10.672,0,0,0,2.72,6.612,12.219,12.219,0,0,0,4.8-2.3,8.256,8.256,0,0,0,1.98-3.01,19.986,19.986,0,0,0,1.233-6.815,48.584,48.584,0,0,0-.918-11.182" transform="translate(-60.936 -98.101)" fill="none" stroke="#1e1200" stroke-miterlimit="10" stroke-width="1"/>
    <path id="Caminho_17" data-name="Caminho 17" d="M149.573,116.392a33.637,33.637,0,0,1,16.419,7.151c2.522,1.962,5.015,4.78,5.544,7.931l-6.027.929a18.6,18.6,0,0,1-5.568.292,12.494,12.494,0,0,1-7.331-4.411,40.514,40.514,0,0,1-4.971-7.627" transform="translate(-105.28 -80.165)" fill="none" stroke="#1e1200" stroke-miterlimit="10" stroke-width="1"/>
    <path id="Caminho_18" data-name="Caminho 18" d="M154.8,84.577c4.428-2.634,8.492-6.965,13.625-7.412,3.578-.312,5.164.892,8.28,2.678a13.307,13.307,0,0,0,4.871,1.447l-5.082,2.857c-3.087,1.735-6.23,3.493-9.688,4.257-3.8.838-8.14.4-12.006-.018" transform="translate(-109.9 -53.113)" fill="none" stroke="#1e1200" stroke-miterlimit="10" stroke-width="1"/>
    <path id="Caminho_19" data-name="Caminho 19" d="M32.8,93.961a40.284,40.284,0,0,0-8.082-.966,13.51,13.51,0,0,0-7.7,2.267c-2.686,1.936-4.343,5.136-7.232,6.754a31.846,31.846,0,0,0,22.861-1.129" transform="translate(-7.024 -63.954)" fill="none" stroke="#1e1200" stroke-miterlimit="10" stroke-width="1"/>
    <path id="Caminho_20" data-name="Caminho 20" d="M81.59,30.1a44.159,44.159,0,0,1-6-9.7c-1.421-3.536-1.9-7.607-.484-11.146,3.389,2.242,6.61,4.654,8.788,8.084a18.461,18.461,0,0,1,3,11.582" transform="translate(-52.118 -6.325)" fill="none" stroke="#1e1200" stroke-miterlimit="10" stroke-width="1"/>
    <path id="Caminho_21" data-name="Caminho 21" d="M133.9,42.78a17.483,17.483,0,0,1,10.72-12.413,34.374,34.374,0,0,1,7.584-1.611,19.846,19.846,0,0,1-5.706,9.809,34.389,34.389,0,0,1-9.557,6.318" transform="translate(-94.055 -18.906)" fill="none" stroke="#1e1200" stroke-miterlimit="10" stroke-width="1"/>
    <path id="Caminho_22" data-name="Caminho 22" d="M59.258,126.5c-4.035,3.009-7.791,6.853-9.029,11.731a28.032,28.032,0,0,0-.61,3.959q-.332,3.143-.664,6.286a7.588,7.588,0,0,0,5.375-1.134,15.124,15.124,0,0,0,4.018-3.889A30.6,30.6,0,0,0,63.979,130.7" transform="translate(-34.647 -87.328)" fill="none" stroke="#1e1200" stroke-miterlimit="10" stroke-width="1"/>
    <path id="Caminho_23" data-name="Caminho 23" d="M126.064,137.975a54.59,54.59,0,0,0,1.406,13.533,20.65,20.65,0,0,0,7.133,11.332c1.883-2.423,2.273-5.687,2.167-8.754a33.588,33.588,0,0,0-5.9-17.818" transform="translate(-87.879 -94.26)" fill="none" stroke="#1e1200" stroke-miterlimit="10" stroke-width="1"/>
    <path id="Caminho_24" data-name="Caminho 24" d="M95.112,90.554a20.532,20.532,0,0,1-10.615,1.4,13.165,13.165,0,0,1-8.948-5.43c-1.95-2.965-2.3-6.708-1.826-10.2a15.694,15.694,0,0,1,1.308-4.715c2.26-4.711,6.553-6.814,11.03-7.423A13.018,13.018,0,0,1,96.94,67.113a13.674,13.674,0,0,1,5.4,11.849C101.959,84.733,99.458,88.851,95.112,90.554Z" transform="translate(-52.687 -44.475)" fill="none" stroke="#1e1200" stroke-miterlimit="10" stroke-width="1"/>
    <path id="Caminho_25" data-name="Caminho 25" d="M95.38,97.494a4.788,4.788,0,0,0,1.2,3.735,6.269,6.269,0,0,0,3.473,1.93,6.661,6.661,0,0,0,6.69-2.51,6.544,6.544,0,0,0,.943-2.1,6.711,6.711,0,0,0-1.874-6.613,5.45,5.45,0,0,0-6.67-.393" transform="translate(-66.731 -62.358)" fill="none" stroke="#1e1200" stroke-miterlimit="10" stroke-width="1"/>
    <path id="Caminho_26" data-name="Caminho 26" d="M100.586,73.722a11.123,11.123,0,0,1,16.046,7.514" transform="translate(-70.623 -49.871)" fill="none" stroke="#1e1200" stroke-miterlimit="10" stroke-width="1"/>
    <path id="Caminho_27" data-name="Caminho 27" d="M112.754,142.611c2.12,6.711,1.5,15.186-.961,21.779a36.088,36.088,0,0,0-.825,22.564c1.454,4.976,3.973,9.585,5.494,14.541,2.776,9.043,2.9,21.878-1.337,35.094" transform="translate(-76.317 -107.641)" fill="none" stroke="#1e1200" stroke-miterlimit="10" stroke-width="1"/>
    <path id="Caminho_28" data-name="Caminho 28" d="M55.176,287.73a12.433,12.433,0,0,1,8.546-6.633,14.775,14.775,0,0,1,10.754,1.973,18.253,18.253,0,0,1,7.075,8.46" transform="translate(-39.526 -192.482)" fill="none" stroke="#1e1200" stroke-miterlimit="10" stroke-width="1"/>
    <path id="Caminho_29" data-name="Caminho 29" d="M59.879,266.013a8.155,8.155,0,0,0-4.333-7.179,9.779,9.779,0,0,0-8.522-.133,12.26,12.26,0,0,0-5.973,6.237,16.507,16.507,0,0,0-1.139,8.649c.46,3.745,1.98,7.352,1.963,11.126a42.576,42.576,0,0,0-.114,4.653,4.727,4.727,0,0,0,2.264,3.846,4.3,4.3,0,0,1-1.944-3.974c.089-2.953,2.006-5.6,4.381-7.355a35.452,35.452,0,0,1,7.929-3.9,16.292,16.292,0,0,0,5.14-2.923,6.079,6.079,0,0,0,2.077-5.312A9.625,9.625,0,0,0,59.879,266.013Z" transform="translate(-28.483 -178.929)" fill="none" stroke="#1e1200" stroke-miterlimit="10" stroke-width="1"/>
    <path id="Caminho_30" data-name="Caminho 30" d="M134.739,332.856a9.07,9.07,0,0,1,7.289-3.478,13.456,13.456,0,0,1,7.777,2.737,26.582,26.582,0,0,1,5.753,6.046" transform="translate(-94.932 -225.553)" fill="none" stroke="#1e1200" stroke-miterlimit="10" stroke-width="1"/>
    <path id="Caminho_31" data-name="Caminho 31" d="M161.38,347.024a12.471,12.471,0,0,0,.881-7.406,16.234,16.234,0,0,0-1.735-4.65,18.208,18.208,0,0,0-9.035-8.46c-1.263-.5-2.6-.819-3.817-1.411a7.244,7.244,0,0,1-4.056-4.826,4.94,4.94,0,0,1,2.575-5.458c-1.1-2.374.448-5.615,2.6-7.11a8.3,8.3,0,0,1,7.518-.682,14.976,14.976,0,0,1,6.158,4.718,24.436,24.436,0,0,1,5.594,16.524,45.516,45.516,0,0,1-.554,5.674,29.655,29.655,0,0,1-3.1,8.49A19.616,19.616,0,0,1,161.38,347.024Z" transform="translate(-102.621 -213.332)" fill="none" stroke="#1e1200" stroke-miterlimit="10" stroke-width="1"/>
    <path id="Caminho_32" data-name="Caminho 32" d="M36.824,222.235a38.081,38.081,0,0,1,9.393-2.068,18.246,18.246,0,0,1,9.383,1.668,20.122,20.122,0,0,1,6.918,6.185" transform="translate(-26.55 -150.784)" fill="none" stroke="#1e1200" stroke-miterlimit="10" stroke-width="1"/>
    <path id="Caminho_33" data-name="Caminho 33" d="M28.417,212.391a15.221,15.221,0,0,0-3.778-.981,21.2,21.2,0,0,0-10.533.89C9.008,214.226,5.2,218.519,2,222.934a17.8,17.8,0,0,1,5.954-1.846,25.176,25.176,0,0,0,3.935-.553c1-.29,1.923-.786,2.909-1.112a8.955,8.955,0,0,1,4.741-.234c2.037.457,3.914,1.628,6,1.717A5.954,5.954,0,0,0,29,219.962a17.825,17.825,0,0,0,2.205-1.907c.559-.508,1.707-1.071,1.577-1.962C32.552,214.511,29.712,212.944,28.417,212.391Z" transform="translate(-2 -144.872)" fill="none" stroke="#1e1200" stroke-miterlimit="10" stroke-width="1"/>
    <path id="Caminho_34" data-name="Caminho 34" d="M131.069,257.859c-3.657,3.237-5.682,9.338-5.8,14.22" transform="translate(-86.948 -177.047)" fill="none" stroke="#1e1200" stroke-miterlimit="10" stroke-width="1"/>
    <path id="Caminho_35" data-name="Caminho 35" d="M143.993,240.27a37.344,37.344,0,0,0-9.239-2.045,2.543,2.543,0,0,0-2.111.466,1.812,1.812,0,0,0-.205,1.934,6.811,6.811,0,0,0,1.2,1.66,16.515,16.515,0,0,1,1.932,18.107,15.739,15.739,0,0,1,7.634-6.4,31.524,31.524,0,0,1,6.766-1.5c1.809-.269,3.911-.766,4.634-2.446s-.4-3.606-1.74-4.863A25.391,25.391,0,0,0,143.993,240.27Z" transform="translate(-93.41 -164.17)" fill="none" stroke="#1e1200" stroke-miterlimit="10" stroke-width="1"/>
    <path id="Caminho_36" data-name="Caminho 36" d="M89,94.38a1.065,1.065,0,0,0,0-2.129A1.065,1.065,0,0,0,89,94.38Z" transform="translate(-61.07 -63.24)" fill="#1e1200"/>
    <path id="Caminho_37" data-name="Caminho 37" d="M100.626,101.771a.533.533,0,0,0,0-1.065A.533.533,0,0,0,100.626,101.771Z" transform="translate(-69.355 -68.98)" fill="#1e1200"/>
    <path id="Caminho_38" data-name="Caminho 38" d="M110.4,135.267a.533.533,0,0,0,0-1.065A.533.533,0,0,0,110.4,135.267Z" transform="translate(-76.064 -91.818)" fill="#1e1200"/>
    <path id="Caminho_39" data-name="Caminho 39" d="M60.327,104.591a.4.4,0,0,0,0-.8A.4.4,0,0,0,60.327,104.591Z" transform="translate(-41.77 -71.078)" fill="#1e1200"/>
    <path id="Caminho_40" data-name="Caminho 40" d="M87.357,88.074a.4.4,0,0,0,0-.8A.4.4,0,0,0,87.357,88.074Z" transform="translate(-60.322 -59.817)" fill="#1e1200"/>
    <path id="Caminho_41" data-name="Caminho 41" d="M81.96,100.2a.266.266,0,0,0,0-.532A.266.266,0,0,0,81.96,100.2Z" transform="translate(-56.695 -68.256)" fill="#1e1200"/>
    <path id="Caminho_42" data-name="Caminho 42" d="M119.225,104.422a1.065,1.065,0,0,0,0-2.129A1.065,1.065,0,0,0,119.225,104.422Z" transform="translate(-81.833 -70.089)" fill="#1e1200"/>
    <path id="Caminho_43" data-name="Caminho 43" d="M123.067,223.707a.266.266,0,0,0,0-.532A.266.266,0,0,0,123.067,223.707Z" transform="translate(-84.905 -152.451)" fill="#1e1200"/>
    <path id="Caminho_44" data-name="Caminho 44" d="M169.009,171.79a.4.4,0,0,0,0-.8A.4.4,0,0,0,169.009,171.79Z" transform="translate(-116.367 -116.89)" fill="#1e1200"/>
  </g>
</svg>
